<?xml version="1.0" encoding="utf-8"?>
<!-- Generator: Adobe Illustrator 27.9.0, SVG Export Plug-In . SVG Version: 6.00 Build 0)  -->
<svg version="1.2" baseProfile="tiny" id="g-01-desctop1600-buttons-img"
	 xmlns="http://www.w3.org/2000/svg" xmlns:xlink="http://www.w3.org/1999/xlink" x="0px" y="0px" viewBox="0 0 1600 639.102"
	 overflow="visible" xml:space="preserve">
<g>
	<g>
		<circle fill="#FFFFFF" cx="1362.592" cy="283.537" r="14.296"/>
		<path fill="#000046" d="M1371.337,284.319l-12.943,7.393c-0.6,0.343-1.346-0.091-1.346-0.781v-14.785
			c0-0.691,0.746-1.124,1.346-0.781l12.943,7.393C1371.942,283.101,1371.942,283.973,1371.337,284.319z"/>
	</g>
	<g>
		<circle fill="#FFFFFF" cx="858.518" cy="283.537" r="14.296"/>
		<path fill="#000046" d="M867.264,284.319l-12.943,7.393c-0.6,0.343-1.346-0.091-1.346-0.781v-14.785
			c0-0.691,0.746-1.124,1.346-0.781l12.943,7.393C867.869,283.101,867.869,283.973,867.264,284.319z"/>
	</g>
	<g>
		<circle fill="#FFFFFF" cx="127.915" cy="283.537" r="14.296"/>
		<path fill="#000046" d="M136.661,284.319l-12.943,7.393c-0.6,0.343-1.346-0.091-1.346-0.781v-14.785
			c0-0.691,0.746-1.124,1.346-0.781l12.943,7.393C137.265,283.101,137.265,283.973,136.661,284.319z"/>
	</g>
</g>
<style>
#g-01-desctop1600-buttons-img rect, #g-01-desctop1600-buttons-img circle, #g-01-desctop1600-buttons-img path, #g-01-desctop1600-buttons-img line, #g-01-desctop1600-buttons-img polyline, #g-01-desctop1600-buttons-img polygon { vector-effect: non-scaling-stroke; }
</style>
</svg>

