<?xml version="1.0" encoding="utf-8"?>
<!-- Generator: Adobe Illustrator 27.9.0, SVG Export Plug-In . SVG Version: 6.00 Build 0)  -->
<svg version="1.2" baseProfile="tiny" id="g-01-desctop900-buttons-img"
	 xmlns="http://www.w3.org/2000/svg" xmlns:xlink="http://www.w3.org/1999/xlink" x="0px" y="0px" viewBox="0 0 900 471.685"
	 overflow="visible" xml:space="preserve">
<g>
	<g>
		<circle fill="#FFFFFF" cx="745.601" cy="208.579" r="8.758"/>
		<path fill="#000046" d="M750.429,209.36l-6.877,3.928c-0.6,0.343-1.346-0.091-1.346-0.782v-7.856c0-0.691,0.746-1.124,1.346-0.782
			l6.877,3.928C751.034,208.143,751.034,209.015,750.429,209.36z"/>
	</g>
	<g>
		<circle fill="#FFFFFF" cx="474.874" cy="208.579" r="8.758"/>
		<path fill="#000046" d="M479.702,209.36l-6.877,3.928c-0.6,0.343-1.346-0.091-1.346-0.782v-7.856c0-0.691,0.746-1.124,1.346-0.782
			l6.877,3.928C480.306,208.143,480.306,209.015,479.702,209.36z"/>
	</g>
	<g>
		<circle fill="#FFFFFF" cx="83.877" cy="208.579" r="8.758"/>
		<path fill="#000046" d="M88.705,209.36l-6.877,3.928c-0.6,0.343-1.346-0.091-1.346-0.782v-7.856c0-0.691,0.746-1.124,1.346-0.782
			l6.877,3.928C89.309,208.143,89.309,209.015,88.705,209.36z"/>
	</g>
</g>
<style>
#g-01-desctop900-buttons-img rect, #g-01-desctop900-buttons-img circle, #g-01-desctop900-buttons-img path, #g-01-desctop900-buttons-img line, #g-01-desctop900-buttons-img polyline, #g-01-desctop900-buttons-img polygon { vector-effect: non-scaling-stroke; }
</style>
</svg>

