<?xml version="1.0" encoding="utf-8"?>
<!-- Generator: Adobe Illustrator 27.9.0, SVG Export Plug-In . SVG Version: 6.00 Build 0)  -->
<svg version="1.2" baseProfile="tiny" id="g-01-mobile-buttons-img"
	 xmlns="http://www.w3.org/2000/svg" xmlns:xlink="http://www.w3.org/1999/xlink" x="0px" y="0px" viewBox="0 0 600 745.862"
	 overflow="visible" xml:space="preserve">
<g>
	<g>
		<circle fill="#FFFFFF" cx="281.082" cy="637.672" r="8.758"/>
		<path fill="#000046" d="M285.91,638.454l-6.877,3.928c-0.6,0.343-1.346-0.091-1.346-0.781v-7.856c0-0.691,0.746-1.124,1.346-0.781
			l6.877,3.928C286.515,637.236,286.515,638.108,285.91,638.454z"/>
	</g>
	<g>
		<circle fill="#FFFFFF" cx="281.082" cy="416.983" r="8.758"/>
		<path fill="#000046" d="M285.91,417.764l-6.877,3.928c-0.6,0.343-1.346-0.091-1.346-0.781v-7.856c0-0.691,0.746-1.124,1.346-0.781
			l6.877,3.928C286.515,416.547,286.515,417.419,285.91,417.764z"/>
	</g>
	<g>
		<circle fill="#FFFFFF" cx="281.082" cy="99.474" r="8.758"/>
		<path fill="#000046" d="M285.91,100.255l-6.877,3.928c-0.6,0.343-1.346-0.091-1.346-0.782v-7.856c0-0.691,0.746-1.124,1.346-0.782
			l6.877,3.928C286.515,99.038,286.515,99.91,285.91,100.255z"/>
	</g>
</g>
<style>
#g-01-mobile-buttons-img rect, #g-01-mobile-buttons-img circle, #g-01-mobile-buttons-img path, #g-01-mobile-buttons-img line, #g-01-mobile-buttons-img polyline, #g-01-mobile-buttons-img polygon { vector-effect: non-scaling-stroke; }
</style>
</svg>

