<?xml version="1.0" encoding="utf-8"?>
<!-- Generator: Adobe Illustrator 27.9.0, SVG Export Plug-In . SVG Version: 6.00 Build 0)  -->
<svg version="1.2" baseProfile="tiny" id="g-02-desktop-buttons-img"
	 xmlns="http://www.w3.org/2000/svg" xmlns:xlink="http://www.w3.org/1999/xlink" x="0px" y="0px" viewBox="0 0 1600 646.359"
	 overflow="visible" xml:space="preserve">
<g>
	<g>
		<circle fill="#FFFFFF" cx="979.592" cy="290.795" r="14.296"/>
		<path fill="#000046" d="M988.338,291.577l-12.943,7.393c-0.6,0.343-1.346-0.091-1.346-0.781v-14.785
			c0-0.691,0.746-1.124,1.346-0.781l12.943,7.393C988.942,290.359,988.942,291.231,988.338,291.577z"/>
	</g>
	<g>
		<circle fill="#FFFFFF" cx="368.355" cy="290.795" r="14.296"/>
		<path fill="#000046" d="M377.101,291.577l-12.943,7.393c-0.6,0.343-1.346-0.091-1.346-0.781v-14.785
			c0-0.691,0.746-1.124,1.346-0.781l12.943,7.393C377.706,290.359,377.706,291.231,377.101,291.577z"/>
	</g>
	<g>
		<circle fill="#FFFFFF" cx="172.691" cy="290.795" r="14.296"/>
		<path fill="#000046" d="M181.437,291.577l-12.943,7.393c-0.6,0.343-1.346-0.091-1.346-0.781v-14.785
			c0-0.691,0.746-1.124,1.346-0.781l12.943,7.393C182.042,290.359,182.042,291.231,181.437,291.577z"/>
	</g>
</g>
<style>
#g-02-desktop-buttons-img rect, #g-02-desktop-buttons-img circle, #g-02-desktop-buttons-img path, #g-02-desktop-buttons-img line, #g-02-desktop-buttons-img polyline, #g-02-desktop-buttons-img polygon { vector-effect: non-scaling-stroke; }
</style>
</svg>

