<?xml version="1.0" encoding="utf-8"?>
<!-- Generator: Adobe Illustrator 27.9.0, SVG Export Plug-In . SVG Version: 6.00 Build 0)  -->
<svg version="1.2" baseProfile="tiny" id="g-02-medium-buttons-img"
	 xmlns="http://www.w3.org/2000/svg" xmlns:xlink="http://www.w3.org/1999/xlink" x="0px" y="0px" viewBox="0 0 900 478.209"
	 overflow="visible" xml:space="preserve">
<g>
	<g>
		<circle fill="#FFFFFF" cx="538.623" cy="215.103" r="8.758"/>
		<path fill="#000046" d="M543.451,215.884l-6.877,3.928c-0.6,0.343-1.346-0.091-1.346-0.782v-7.856
			c0-0.691,0.746-1.124,1.346-0.782l6.877,3.928C544.056,214.667,544.056,215.539,543.451,215.884z"/>
	</g>
	<g>
		<circle fill="#FFFFFF" cx="212.866" cy="215.103" r="8.758"/>
		<path fill="#000046" d="M217.693,215.884l-6.877,3.928c-0.6,0.343-1.346-0.091-1.346-0.782v-7.856
			c0-0.691,0.746-1.124,1.346-0.782l6.877,3.928C218.298,214.667,218.298,215.539,217.693,215.884z"/>
	</g>
	<g>
		<circle fill="#FFFFFF" cx="108.428" cy="215.103" r="8.758"/>
		<path fill="#000046" d="M113.256,215.884l-6.877,3.928c-0.6,0.343-1.346-0.091-1.346-0.782v-7.856
			c0-0.691,0.746-1.124,1.346-0.782l6.877,3.928C113.86,214.667,113.86,215.539,113.256,215.884z"/>
	</g>
</g>
<style>
#g-02-medium-buttons-img rect, #g-02-medium-buttons-img circle, #g-02-medium-buttons-img path, #g-02-medium-buttons-img line, #g-02-medium-buttons-img polyline, #g-02-medium-buttons-img polygon { vector-effect: non-scaling-stroke; }
</style>
</svg>

