<?xml version="1.0" encoding="utf-8"?>
<!-- Generator: Adobe Illustrator 27.9.0, SVG Export Plug-In . SVG Version: 6.00 Build 0)  -->
<svg version="1.2" baseProfile="tiny" id="g-02-mobile-buttons-img"
	 xmlns="http://www.w3.org/2000/svg" xmlns:xlink="http://www.w3.org/1999/xlink" x="0px" y="0px" viewBox="0 0 600 730.516"
	 overflow="visible" xml:space="preserve">
<g>
	<g>
		<circle fill="#FFFFFF" cx="281.082" cy="455.56" r="8.758"/>
		<path fill="#000046" d="M285.91,456.341l-6.877,3.928c-0.6,0.343-1.346-0.091-1.346-0.781v-7.856c0-0.691,0.746-1.124,1.346-0.781
			l6.877,3.928C286.515,455.124,286.515,455.996,285.91,456.341z"/>
	</g>
	<g>
		<circle fill="#FFFFFF" cx="281.082" cy="191.479" r="8.758"/>
		<path fill="#000046" d="M285.91,192.261l-6.877,3.928c-0.6,0.343-1.346-0.091-1.346-0.781v-7.856c0-0.691,0.746-1.124,1.346-0.781
			l6.877,3.928C286.515,191.043,286.515,191.915,285.91,192.261z"/>
	</g>
	<g>
		<circle fill="#FFFFFF" cx="281.082" cy="106.373" r="8.758"/>
		<path fill="#000046" d="M285.91,107.154l-6.877,3.928c-0.6,0.343-1.346-0.091-1.346-0.782v-7.856c0-0.691,0.746-1.124,1.346-0.782
			l6.877,3.928C286.515,105.937,286.515,106.809,285.91,107.154z"/>
	</g>
</g>
<style>
#g-02-mobile-buttons-img rect, #g-02-mobile-buttons-img circle, #g-02-mobile-buttons-img path, #g-02-mobile-buttons-img line, #g-02-mobile-buttons-img polyline, #g-02-mobile-buttons-img polygon { vector-effect: non-scaling-stroke; }
</style>
</svg>

