<?xml version="1.0" encoding="utf-8"?>
<!-- Generator: Adobe Illustrator 27.9.0, SVG Export Plug-In . SVG Version: 6.00 Build 0)  -->
<svg version="1.2" baseProfile="tiny" id="g-03-desktop-buttons-img"
	 xmlns="http://www.w3.org/2000/svg" xmlns:xlink="http://www.w3.org/1999/xlink" x="0px" y="0px" viewBox="0 0 1600 709.927"
	 overflow="visible" xml:space="preserve">
<g>
	<g>
		<circle fill="#FFFFFF" cx="1325.095" cy="354.363" r="14.296"/>
		<path fill="#000046" d="M1333.841,355.144l-12.943,7.393c-0.6,0.343-1.346-0.091-1.346-0.781V346.97
			c0-0.691,0.746-1.124,1.346-0.781l12.943,7.393C1334.446,353.927,1334.446,354.799,1333.841,355.144z"/>
	</g>
	<g>
		<circle fill="#FFFFFF" cx="809.435" cy="354.363" r="14.296"/>
		<path fill="#000046" d="M818.181,355.144l-12.943,7.393c-0.6,0.343-1.346-0.091-1.346-0.781V346.97
			c0-0.691,0.746-1.124,1.346-0.781l12.943,7.393C818.786,353.927,818.786,354.799,818.181,355.144z"/>
	</g>
	<g>
		<circle fill="#FFFFFF" cx="733.141" cy="354.363" r="14.296"/>
		<path fill="#000046" d="M741.886,355.144l-12.943,7.393c-0.6,0.343-1.346-0.091-1.346-0.781V346.97
			c0-0.691,0.746-1.124,1.346-0.781l12.943,7.393C742.491,353.927,742.491,354.799,741.886,355.144z"/>
	</g>
</g>
<style>
#g-03-desktop-buttons-img rect, #g-03-desktop-buttons-img circle, #g-03-desktop-buttons-img path, #g-03-desktop-buttons-img line, #g-03-desktop-buttons-img polyline, #g-03-desktop-buttons-img polygon { vector-effect: non-scaling-stroke; }
</style>
</svg>

