<?xml version="1.0" encoding="utf-8"?>
<!-- Generator: Adobe Illustrator 27.9.0, SVG Export Plug-In . SVG Version: 6.00 Build 0)  -->
<svg version="1.2" baseProfile="tiny" id="g-03-mobile-buttons-img"
	 xmlns="http://www.w3.org/2000/svg" xmlns:xlink="http://www.w3.org/1999/xlink" x="0px" y="0px" viewBox="0 0 600 743.239"
	 overflow="visible" xml:space="preserve">
<g>
	<g>
		<circle fill="#FFFFFF" cx="281.082" cy="617.503" r="8.758"/>
		<path fill="#000046" d="M285.91,618.285l-6.877,3.928c-0.6,0.343-1.346-0.091-1.346-0.781v-7.856c0-0.691,0.746-1.124,1.346-0.781
			l6.877,3.928C286.515,617.067,286.515,617.939,285.91,618.285z"/>
	</g>
	<g>
		<circle fill="#FFFFFF" cx="281.082" cy="393.971" r="8.758"/>
		<path fill="#000046" d="M285.91,394.752l-6.877,3.928c-0.6,0.343-1.346-0.091-1.346-0.781v-7.856c0-0.691,0.746-1.124,1.346-0.781
			l6.877,3.928C286.515,393.535,286.515,394.407,285.91,394.752z"/>
	</g>
	<g>
		<circle fill="#FFFFFF" cx="281.082" cy="360.771" r="8.758"/>
		<path fill="#000046" d="M285.91,361.553l-6.877,3.928c-0.6,0.343-1.346-0.091-1.346-0.781v-7.856c0-0.691,0.746-1.124,1.346-0.781
			l6.877,3.928C286.515,360.335,286.515,361.207,285.91,361.553z"/>
	</g>
</g>
<style>
#g-03-mobile-buttons-img rect, #g-03-mobile-buttons-img circle, #g-03-mobile-buttons-img path, #g-03-mobile-buttons-img line, #g-03-mobile-buttons-img polyline, #g-03-mobile-buttons-img polygon { vector-effect: non-scaling-stroke; }
</style>
</svg>

