<?xml version="1.0" encoding="utf-8"?>
<!-- Generator: Adobe Illustrator 27.9.0, SVG Export Plug-In . SVG Version: 6.00 Build 0)  -->
<svg version="1.2" baseProfile="tiny" id="g-03-medium-buttons-img"
	 xmlns="http://www.w3.org/2000/svg" xmlns:xlink="http://www.w3.org/1999/xlink" x="0px" y="0px" viewBox="0 0 900 500.772"
	 overflow="visible" xml:space="preserve">
<g>
	<g>
		<circle fill="#FFFFFF" cx="727.001" cy="237.665" r="8.758"/>
		<path fill="#000046" d="M731.828,238.446l-6.877,3.928c-0.6,0.343-1.346-0.091-1.346-0.781v-7.856
			c0-0.691,0.746-1.124,1.346-0.781l6.877,3.928C732.433,237.229,732.433,238.101,731.828,238.446z"/>
	</g>
	<g>
		<circle fill="#FFFFFF" cx="450" cy="237.665" r="8.758"/>
		<path fill="#000046" d="M454.828,238.446l-6.877,3.928c-0.6,0.343-1.346-0.091-1.346-0.781v-7.856
			c0-0.691,0.746-1.124,1.346-0.781l6.877,3.928C455.433,237.229,455.433,238.101,454.828,238.446z"/>
	</g>
	<g>
		<circle fill="#FFFFFF" cx="409.125" cy="237.665" r="8.758"/>
		<path fill="#000046" d="M413.953,238.446l-6.877,3.928c-0.6,0.343-1.346-0.091-1.346-0.781v-7.856
			c0-0.691,0.746-1.124,1.346-0.781l6.877,3.928C414.557,237.229,414.557,238.101,413.953,238.446z"/>
	</g>
</g>
<style>
#g-03-medium-buttons-img rect, #g-03-medium-buttons-img circle, #g-03-medium-buttons-img path, #g-03-medium-buttons-img line, #g-03-medium-buttons-img polyline, #g-03-medium-buttons-img polygon { vector-effect: non-scaling-stroke; }
</style>
</svg>

