<?xml version="1.0" encoding="utf-8"?>
<!-- Generator: Adobe Illustrator 27.9.0, SVG Export Plug-In . SVG Version: 6.00 Build 0)  -->
<svg version="1.2" baseProfile="tiny" id="g-04-desktop-buttons-img"
	 xmlns="http://www.w3.org/2000/svg" xmlns:xlink="http://www.w3.org/1999/xlink" x="0px" y="0px" viewBox="0 0 1600 709.927"
	 overflow="visible" xml:space="preserve">
<g>
	<g>
		<circle fill="#FFFFFF" cx="1162.157" cy="354.363" r="14.296"/>
		<path fill="#000046" d="M1170.051,355.631l-11.253,6.428c-0.974,0.556-2.184-0.147-2.184-1.268v-12.855
			c0-1.121,1.211-1.824,2.184-1.268l11.253,6.428C1171.032,353.656,1171.032,355.07,1170.051,355.631z"/>
	</g>
	<g>
		<circle fill="#FFFFFF" cx="946.402" cy="354.363" r="14.296"/>
		<path fill="#000046" d="M954.146,355.717l-10.955,6.257c-1.039,0.594-2.332-0.157-2.332-1.354v-12.515
			c0-1.197,1.293-1.947,2.332-1.354l10.955,6.257C955.194,353.608,955.194,355.118,954.146,355.717z"/>
	</g>
	<g>
		<circle fill="#FFFFFF" cx="738.484" cy="354.363" r="14.296"/>
		<path fill="#000046" d="M746.04,355.824l-10.582,6.044c-1.122,0.641-2.517-0.169-2.517-1.461v-12.089
			c0-1.292,1.395-2.102,2.517-1.461l10.582,6.044C747.171,353.548,747.171,355.178,746.04,355.824z"/>
	</g>
</g>
<style>
#g-04-desktop-buttons-img rect, #g-04-desktop-buttons-img circle, #g-04-desktop-buttons-img path, #g-04-desktop-buttons-img line, #g-04-desktop-buttons-img polyline, #g-04-desktop-buttons-img polygon { vector-effect: non-scaling-stroke; }
</style>
</svg>

