<?xml version="1.0" encoding="utf-8"?>
<!-- Generator: Adobe Illustrator 27.9.0, SVG Export Plug-In . SVG Version: 6.00 Build 0)  -->
<svg version="1.2" baseProfile="tiny" id="g-04-mobile-buttons-img"
	 xmlns="http://www.w3.org/2000/svg" xmlns:xlink="http://www.w3.org/1999/xlink" x="0px" y="0px" viewBox="0 0 600 735.327"
	 overflow="visible" xml:space="preserve">
<g>
	<g>
		<circle fill="#FFFFFF" cx="281.082" cy="539.754" r="8.758"/>
		<path fill="#000046" d="M285.402,540.825l-5.87,3.353c-0.823,0.47-1.846-0.124-1.846-1.071v-6.706
			c0-0.947,1.023-1.541,1.846-1.071l5.87,3.353C286.232,539.156,286.232,540.352,285.402,540.825z"/>
	</g>
	<g>
		<circle fill="#FFFFFF" cx="281.082" cy="446.329" r="8.758"/>
		<path fill="#000046" d="M285.654,447.256l-6.37,3.638c-0.712,0.407-1.598-0.107-1.598-0.928v-7.277
			c0-0.82,0.886-1.334,1.598-0.928l6.37,3.638C286.372,445.811,286.372,446.846,285.654,447.256z"/>
	</g>
	<g>
		<circle fill="#FFFFFF" cx="281.082" cy="353.508" r="8.758"/>
		<path fill="#000046" d="M285.709,354.404l-6.478,3.7c-0.688,0.393-1.545-0.104-1.545-0.897v-7.4c0-0.793,0.856-1.29,1.545-0.897
			l6.478,3.7C286.402,353.007,286.402,354.008,285.709,354.404z"/>
	</g>
</g>
<style>
#g-04-mobile-buttons-img rect, #g-04-mobile-buttons-img circle, #g-04-mobile-buttons-img path, #g-04-mobile-buttons-img line, #g-04-mobile-buttons-img polyline, #g-04-mobile-buttons-img polygon { vector-effect: non-scaling-stroke; }
</style>
</svg>

