<?xml version="1.0" encoding="utf-8"?>
<!-- Generator: Adobe Illustrator 27.9.0, SVG Export Plug-In . SVG Version: 6.00 Build 0)  -->
<svg version="1.2" baseProfile="tiny" id="g-04-medium-buttons-img"
	 xmlns="http://www.w3.org/2000/svg" xmlns:xlink="http://www.w3.org/1999/xlink" x="0px" y="0px" viewBox="0 0 900 526.213"
	 overflow="visible" xml:space="preserve">
<g>
	<g>
		<circle fill="#FFFFFF" cx="638.008" cy="263.107" r="8.758"/>
		<path fill="#000046" d="M642.773,263.924l-6.753,3.857c-0.627,0.358-1.408-0.095-1.408-0.817v-7.715
			c0-0.723,0.78-1.176,1.408-0.817l6.753,3.857C643.406,262.651,643.406,263.563,642.773,263.924z"/>
	</g>
	<g>
		<circle fill="#FFFFFF" cx="521.675" cy="263.107" r="8.758"/>
		<path fill="#000046" d="M526.533,263.871l-6.938,3.963c-0.587,0.335-1.316-0.089-1.316-0.764v-7.925
			c0-0.676,0.73-1.099,1.316-0.764l6.938,3.963C527.125,262.68,527.125,263.533,526.533,263.871z"/>
	</g>
	<g>
		<circle fill="#FFFFFF" cx="409.568" cy="263.107" r="8.758"/>
		<path fill="#000046" d="M414.279,263.954l-6.647,3.797c-0.651,0.372-1.46-0.098-1.46-0.848v-7.594c0-0.749,0.81-1.219,1.46-0.848
			l6.647,3.797C414.935,262.634,414.935,263.58,414.279,263.954z"/>
	</g>
</g>
<style>
#g-04-medium-buttons-img rect, #g-04-medium-buttons-img circle, #g-04-medium-buttons-img path, #g-04-medium-buttons-img line, #g-04-medium-buttons-img polyline, #g-04-medium-buttons-img polygon { vector-effect: non-scaling-stroke; }
</style>
</svg>

