<?xml version="1.0" encoding="utf-8"?>
<!-- Generator: Adobe Illustrator 27.9.0, SVG Export Plug-In . SVG Version: 6.00 Build 0)  -->
<svg version="1.2" baseProfile="tiny" id="g-05-desktop-play3-img"
	 xmlns="http://www.w3.org/2000/svg" xmlns:xlink="http://www.w3.org/1999/xlink" x="0px" y="0px" viewBox="0 0 1600 681.351"
	 overflow="visible" xml:space="preserve">
<g>
	<g>
		<circle fill="#FFFFFF" cx="992.908" cy="325.786" r="14.296"/>
		<path fill="#000046" d="M1001.654,326.568l-12.943,7.393c-0.6,0.343-1.346-0.091-1.346-0.782v-14.785
			c0-0.691,0.746-1.124,1.346-0.782l12.943,7.393C1002.259,325.35,1002.259,326.222,1001.654,326.568z"/>
	</g>
	<g>
		<circle fill="#FFFFFF" cx="719.213" cy="325.786" r="14.296"/>
		<path fill="#000046" d="M727.959,326.568l-12.943,7.393c-0.6,0.343-1.346-0.091-1.346-0.782v-14.785
			c0-0.691,0.746-1.124,1.346-0.782l12.943,7.393C728.564,325.35,728.564,326.222,727.959,326.568z"/>
	</g>
	<g>
		<circle fill="#FFFFFF" cx="342.948" cy="325.786" r="14.296"/>
		<path fill="#000046" d="M351.694,326.568l-12.943,7.393c-0.6,0.343-1.346-0.091-1.346-0.782v-14.785
			c0-0.691,0.746-1.124,1.346-0.782l12.943,7.393C352.298,325.35,352.298,326.222,351.694,326.568z"/>
	</g>
</g>
<style>
#g-05-desktop-play3-img rect, #g-05-desktop-play3-img circle, #g-05-desktop-play3-img path, #g-05-desktop-play3-img line, #g-05-desktop-play3-img polyline, #g-05-desktop-play3-img polygon { vector-effect: non-scaling-stroke; }
</style>
</svg>

