<?xml version="1.0" encoding="utf-8"?>
<!-- Generator: Adobe Illustrator 27.9.0, SVG Export Plug-In . SVG Version: 6.00 Build 0)  -->
<svg version="1.2" baseProfile="tiny" id="g-05-medium-play3-img"
	 xmlns="http://www.w3.org/2000/svg" xmlns:xlink="http://www.w3.org/1999/xlink" x="0px" y="0px" viewBox="0 0 900 494.389"
	 overflow="visible" xml:space="preserve">
<g>
	<g>
		<circle fill="#FFFFFF" cx="547.237" cy="231.282" r="8.758"/>
		<path fill="#000046" d="M552.065,232.064l-6.877,3.928c-0.6,0.343-1.346-0.091-1.346-0.781v-7.856
			c0-0.691,0.746-1.124,1.346-0.781l6.877,3.928C552.67,230.846,552.67,231.718,552.065,232.064z"/>
	</g>
	<g>
		<circle fill="#FFFFFF" cx="400.285" cy="231.282" r="8.758"/>
		<path fill="#000046" d="M405.113,232.064l-6.877,3.928c-0.6,0.343-1.346-0.091-1.346-0.781v-7.856
			c0-0.691,0.746-1.124,1.346-0.781l6.877,3.928C405.718,230.846,405.718,231.718,405.113,232.064z"/>
	</g>
	<g>
		<circle fill="#FFFFFF" cx="198.261" cy="231.282" r="8.758"/>
		<path fill="#000046" d="M203.089,232.064l-6.877,3.928c-0.6,0.343-1.346-0.091-1.346-0.781v-7.856
			c0-0.691,0.746-1.124,1.346-0.781l6.877,3.928C203.693,230.846,203.693,231.718,203.089,232.064z"/>
	</g>
</g>
<style>
#g-05-medium-play3-img rect, #g-05-medium-play3-img circle, #g-05-medium-play3-img path, #g-05-medium-play3-img line, #g-05-medium-play3-img polyline, #g-05-medium-play3-img polygon { vector-effect: non-scaling-stroke; }
</style>
</svg>

