<?xml version="1.0" encoding="utf-8"?>
<!-- Generator: Adobe Illustrator 27.9.0, SVG Export Plug-In . SVG Version: 6.00 Build 0)  -->
<svg version="1.2" baseProfile="tiny" id="g-05-mobile-play3-img"
	 xmlns="http://www.w3.org/2000/svg" xmlns:xlink="http://www.w3.org/1999/xlink" x="0px" y="0px" viewBox="0 0 600 740.692"
	 overflow="visible" xml:space="preserve">
<g>
	<g>
		<circle fill="#FFFFFF" cx="281.082" cy="471.149" r="8.758"/>
		<path fill="#000046" d="M285.91,471.93l-6.877,3.928c-0.6,0.343-1.346-0.091-1.346-0.782v-7.856c0-0.691,0.746-1.124,1.346-0.781
			l6.877,3.928C286.515,470.713,286.515,471.585,285.91,471.93z"/>
	</g>
	<g>
		<circle fill="#FFFFFF" cx="281.082" cy="352.603" r="8.758"/>
		<path fill="#000046" d="M285.91,353.385l-6.877,3.928c-0.6,0.343-1.346-0.091-1.346-0.781v-7.856c0-0.691,0.746-1.124,1.346-0.781
			l6.877,3.928C286.515,352.167,286.515,353.039,285.91,353.385z"/>
	</g>
	<g>
		<circle fill="#FFFFFF" cx="281.082" cy="188.822" r="8.758"/>
		<path fill="#000046" d="M285.91,189.603l-7.281,4.159c-0.42,0.24-0.942-0.063-0.942-0.547v-8.787c0-0.484,0.522-0.787,0.942-0.547
			l7.281,4.159C286.515,188.386,286.515,189.258,285.91,189.603z"/>
	</g>
</g>
<style>
#g-05-mobile-play3-img rect, #g-05-mobile-play3-img circle, #g-05-mobile-play3-img path, #g-05-mobile-play3-img line, #g-05-mobile-play3-img polyline, #g-05-mobile-play3-img polygon { vector-effect: non-scaling-stroke; }
</style>
</svg>

